<?xml version="1.0" standalone="no"?>
<!DOCTYPE svg PUBLIC "-//W3C//DTD SVG 20010904//EN"
 "http://www.w3.org/TR/2001/REC-SVG-20010904/DTD/svg10.dtd">
<svg version="1.0" xmlns="http://www.w3.org/2000/svg"
 width="78.000000pt" height="90.000000pt" viewBox="0 0 78.000000 90.000000"
 preserveAspectRatio="xMidYMid meet">

<g transform="translate(0.000000,90.000000) scale(0.100000,-0.100000)"
fill="#15aec2" stroke="none">
<path d="M515 835 c-131 -77 -155 -102 -155 -155 0 -55 29 -84 159 -160 61
-36 111 -68 111 -71 0 -3 -48 -35 -106 -70 -135 -82 -164 -108 -164 -154 0
-63 18 -83 141 -156 64 -38 124 -69 133 -69 14 0 16 10 14 67 l-3 66 -68 43
-68 42 108 62 c151 88 163 100 163 171 0 66 0 66 -162 164 -54 33 -98 62 -98
65 0 3 29 23 65 44 l65 38 0 69 c0 49 -4 69 -13 69 -7 0 -62 -29 -122 -65z"/>
<path d="M166 606 c-127 -75 -155 -100 -162 -147 -8 -56 20 -86 150 -161 65
-38 122 -68 127 -68 5 0 9 30 9 68 l0 67 -65 40 c-36 22 -65 42 -65 45 0 3 26
20 59 38 32 17 64 38 70 46 14 17 11 128 -4 132 -5 2 -59 -25 -119 -60z"/>
</g>
</svg>
